<?xml version="1.0" encoding="iso-8859-1"?>
<!-- Generator: Adobe Illustrator 19.0.0, SVG Export Plug-In . SVG Version: 6.00 Build 0)  -->
<svg version="1.1" id="Layer_1" xmlns="http://www.w3.org/2000/svg" xmlns:xlink="http://www.w3.org/1999/xlink" x="0px" y="0px"
	 viewBox="0 0 512 512" style="enable-background:new 0 0 512 512;" xml:space="preserve">
<circle cx="256" cy="256" r="256"/>
<g>
	<path style="fill:#FFFFFF;" d="M384.64,346.4H127.36c-12.8,0-23.36-10.48-23.36-23.36V159.36c0-12.88,10.56-23.36,23.36-23.36
		h257.2c12.88,0,23.36,10.56,23.36,23.36v163.68C408,335.92,397.44,346.4,384.64,346.4z"/>
	<polygon style="fill:#FFFFFF;" points="337.84,416.56 337.84,323.04 220.96,323.04 	"/>
</g>
<rect x="144" y="183.52" width="224" height="15.6"/>
<rect x="144" y="215.84" width="224" height="15.6"/>
<rect x="144" y="248.08" width="176" height="15.6"/>
<rect x="144" y="280.4" width="16" height="15.6"/>
<rect x="176" y="280.4" width="16" height="15.6"/>
<rect x="208" y="280.4" width="16" height="15.6"/>
<rect x="240" y="280.4" width="16" height="15.6"/>
<rect x="272" y="280.4" width="16" height="15.6"/>
<g>
</g>
<g>
</g>
<g>
</g>
<g>
</g>
<g>
</g>
<g>
</g>
<g>
</g>
<g>
</g>
<g>
</g>
<g>
</g>
<g>
</g>
<g>
</g>
<g>
</g>
<g>
</g>
<g>
</g>
</svg>
